<svg id="svg" version="1.1" xmlns="http://www.w3.org/2000/svg" xmlns:xlink="http://www.w3.org/1999/xlink" width="400" height="400" viewBox="0, 0, 400,400"><g id="svgg"><path id="path0" d="M221.900 66.716 C 219.975 66.779,218.400 66.983,218.400 67.169 C 218.400 67.355,217.185 67.635,215.700 67.793 C 214.215 67.950,212.820 68.215,212.600 68.381 C 212.380 68.548,210.850 69.199,209.200 69.829 C 207.550 70.459,206.109 71.099,205.998 71.252 C 205.018 72.601,190.800 72.592,190.800 71.242 C 190.800 71.082,189.901 70.721,188.802 70.439 C 187.703 70.158,186.128 69.465,185.302 68.900 C 184.407 68.289,183.032 67.798,181.900 67.686 C 180.855 67.583,180.000 67.341,180.000 67.149 C 180.000 66.957,178.650 66.800,177.000 66.800 C 175.350 66.800,174.000 66.941,174.000 67.112 C 174.000 67.284,173.460 67.628,172.800 67.878 C 172.140 68.127,171.600 68.616,171.600 68.965 C 171.600 69.314,171.432 69.600,171.227 69.600 C 171.022 69.600,170.727 70.005,170.572 70.500 C 170.417 70.995,169.775 72.152,169.145 73.072 C 168.515 73.992,168.000 74.998,168.000 75.308 C 168.000 78.002,162.473 80.601,157.642 80.180 C 148.986 79.424,142.647 82.293,147.660 84.697 C 148.944 85.313,149.195 85.650,150.410 88.400 C 151.453 90.759,151.955 91.436,154.893 94.457 C 155.934 95.527,156.890 96.897,157.017 97.501 C 157.144 98.106,157.358 98.960,157.493 99.400 C 157.627 99.840,157.857 113.700,158.004 130.200 C 158.265 159.522,158.582 166.400,159.672 166.400 C 159.852 166.400,160.000 166.858,160.000 167.418 C 160.000 168.392,160.689 169.229,162.948 170.997 C 163.508 171.436,164.265 172.516,164.631 173.397 C 165.881 176.410,166.173 176.868,167.386 177.721 C 168.054 178.190,169.140 179.074,169.800 179.685 C 170.460 180.296,171.113 180.797,171.251 180.798 C 171.390 180.799,171.712 181.306,171.968 181.924 C 172.566 183.366,174.095 184.253,177.544 185.159 C 179.065 185.558,180.714 186.262,181.209 186.723 C 181.704 187.183,182.605 187.669,183.213 187.803 C 183.820 187.936,184.617 188.376,184.983 188.781 C 185.349 189.185,186.447 189.636,187.424 189.783 C 188.401 189.929,189.200 190.195,189.200 190.375 C 189.200 190.554,189.695 190.802,190.300 190.927 C 190.905 191.052,192.153 191.647,193.073 192.249 C 196.241 194.322,196.000 188.371,196.000 264.663 C 196.000 302.084,196.113 333.263,196.250 333.950 L 196.500 335.200 200.200 335.200 L 203.900 335.200 204.150 333.950 C 204.288 333.263,204.400 318.241,204.400 300.570 C 204.400 270.140,204.580 264.400,205.536 264.400 C 205.684 264.400,206.031 263.905,206.308 263.300 C 207.716 260.222,210.116 258.549,213.620 258.203 C 216.204 257.948,221.261 257.220,226.700 256.320 C 228.295 256.057,229.600 255.697,229.600 255.520 C 229.600 255.344,230.068 255.200,230.640 255.200 C 232.503 255.200,234.166 254.105,234.910 252.388 C 235.329 251.420,236.005 250.626,236.605 250.398 C 240.882 248.772,241.699 247.985,242.938 244.304 C 243.066 243.921,244.168 242.971,245.386 242.192 C 246.604 241.413,247.600 240.511,247.600 240.188 C 247.600 239.864,247.764 239.600,247.965 239.600 C 248.166 239.600,248.451 238.835,248.600 237.900 C 249.355 233.161,251.408 226.000,252.013 226.000 C 253.790 226.000,255.881 212.655,254.543 209.850 C 253.629 207.934,248.195 206.984,241.595 207.587 C 233.652 208.314,228.000 209.146,228.000 209.588 C 228.000 209.732,227.145 210.074,226.100 210.348 C 224.524 210.763,224.007 211.151,223.069 212.624 C 222.446 213.601,221.784 214.400,221.597 214.400 C 220.051 214.400,216.033 216.927,215.405 218.294 C 212.488 224.642,205.464 223.001,204.733 215.800 C 204.240 210.934,204.346 196.562,204.885 195.319 C 205.640 193.575,207.733 191.712,209.547 191.168 C 210.456 190.896,211.200 190.533,211.200 190.361 C 211.200 190.189,212.012 189.927,213.005 189.778 C 213.998 189.629,214.917 189.334,215.049 189.121 C 215.181 188.908,216.033 188.410,216.944 188.015 C 217.855 187.619,218.997 186.944,219.483 186.516 C 219.968 186.087,221.408 185.507,222.683 185.226 C 226.055 184.484,226.386 184.267,230.931 179.803 C 233.836 176.950,235.146 175.370,235.318 174.508 C 235.474 173.729,236.502 172.342,238.130 170.714 L 240.697 168.148 241.420 164.174 C 242.060 160.666,242.175 156.684,242.404 130.200 C 242.546 113.700,242.773 99.840,242.907 99.400 C 243.042 98.960,243.246 98.147,243.360 97.593 C 243.475 97.039,244.791 95.302,246.284 93.732 C 248.222 91.696,249.286 90.167,250.000 88.394 C 250.765 86.493,251.357 85.680,252.519 84.937 C 257.164 81.967,251.927 79.380,242.871 80.170 C 239.805 80.437,235.207 79.659,235.197 78.872 C 235.195 78.722,234.565 77.937,233.797 77.127 C 233.028 76.316,232.400 75.449,232.400 75.199 C 232.400 74.949,231.885 73.992,231.257 73.072 C 230.628 72.152,229.871 70.723,229.575 69.896 C 229.176 68.783,228.694 68.269,227.718 67.916 C 226.993 67.654,226.400 67.315,226.400 67.162 C 226.400 66.685,225.508 66.596,221.900 66.716 M193.930 78.667 C 194.079 78.897,194.835 79.201,195.610 79.344 C 198.442 79.864,199.848 81.571,200.120 84.820 C 200.252 86.393,200.632 88.094,200.964 88.601 C 201.536 89.475,201.512 89.535,200.488 89.792 C 199.894 89.942,199.316 90.201,199.204 90.369 C 198.610 91.258,196.460 91.151,195.838 90.202 C 194.804 88.623,191.990 87.229,189.266 86.944 C 187.910 86.802,186.800 86.557,186.800 86.399 C 186.800 86.240,185.692 86.011,184.339 85.888 C 181.819 85.659,180.246 84.856,179.431 83.380 C 179.194 82.951,178.820 82.468,178.600 82.306 C 178.348 82.121,178.375 82.010,178.673 82.006 C 178.933 82.003,179.248 81.685,179.372 81.300 C 179.496 80.915,180.168 79.993,180.864 79.252 L 182.131 77.903 187.896 78.077 C 191.264 78.178,193.772 78.424,193.930 78.667 M218.507 82.697 C 218.339 83.137,218.218 83.153,217.981 82.770 C 217.812 82.496,217.772 82.016,217.893 81.703 C 218.061 81.263,218.182 81.247,218.419 81.630 C 218.588 81.904,218.628 82.384,218.507 82.697 M169.267 90.364 C 169.340 90.564,172.370 91.022,176.000 91.381 C 184.115 92.182,187.467 93.083,188.739 94.803 C 189.240 95.480,190.493 96.432,191.525 96.917 C 192.556 97.403,193.490 97.904,193.600 98.030 C 193.710 98.157,194.880 98.692,196.200 99.219 C 199.214 100.422,200.400 101.151,200.400 101.801 C 200.400 102.678,203.897 105.904,205.376 106.392 C 206.870 106.885,208.121 108.327,208.531 110.028 C 208.823 111.237,210.964 113.542,212.917 114.749 C 214.252 115.573,215.611 118.423,216.616 122.500 C 216.765 123.105,217.047 123.600,217.243 123.600 C 217.440 123.600,217.600 124.043,217.600 124.584 C 217.600 125.218,218.168 126.093,219.200 127.048 C 220.080 127.862,220.800 128.770,220.800 129.064 C 220.800 129.359,220.966 129.600,221.169 129.600 C 222.425 129.600,223.363 138.328,223.383 150.200 C 223.406 163.163,222.952 165.160,219.000 169.474 C 218.340 170.195,217.014 171.688,216.054 172.792 C 215.093 173.896,214.058 174.800,213.754 174.800 C 213.449 174.800,213.200 175.057,213.200 175.371 C 213.200 176.029,210.468 178.400,209.709 178.400 C 209.429 178.400,209.200 178.566,209.200 178.768 C 209.200 182.056,180.713 181.876,179.448 178.581 C 179.325 178.261,178.957 178.000,178.629 178.000 C 178.302 178.000,177.560 177.191,176.980 176.203 C 176.261 174.975,175.399 174.158,174.263 173.626 C 171.735 172.443,170.920 171.531,170.030 168.890 C 168.865 165.431,168.364 164.446,167.639 164.187 C 164.296 162.995,164.001 160.124,164.001 128.700 C 164.000 111.434,163.863 102.400,163.600 102.400 C 163.365 102.400,163.200 101.000,163.200 99.000 C 163.200 97.130,163.358 95.600,163.550 95.600 C 163.743 95.600,164.002 95.090,164.127 94.467 C 164.324 93.482,165.268 92.292,167.260 90.520 C 167.906 89.946,169.080 89.855,169.267 90.364 M234.113 91.333 C 237.284 94.616,237.017 92.858,236.858 109.400 C 236.779 117.584,236.555 124.260,236.358 124.333 C 236.161 124.407,235.998 124.857,235.996 125.333 C 235.989 126.735,234.853 130.112,233.994 131.284 C 233.557 131.880,233.200 132.536,233.200 132.741 C 233.200 133.470,231.973 133.595,231.704 132.893 C 231.558 132.512,231.038 131.609,230.548 130.887 C 230.058 130.164,229.540 129.039,229.397 128.387 C 229.254 127.734,228.992 127.200,228.816 127.200 C 228.639 127.200,228.299 126.421,228.059 125.469 C 227.819 124.516,227.288 123.301,226.880 122.769 C 226.471 122.236,226.021 121.485,225.881 121.100 C 225.740 120.715,225.365 120.400,225.046 120.400 C 224.372 120.400,222.235 117.812,221.826 116.500 C 221.672 116.005,221.396 115.600,221.212 115.600 C 221.028 115.600,220.502 114.385,220.043 112.900 C 218.979 109.458,218.821 109.235,216.739 108.233 C 215.712 107.739,214.762 106.912,214.404 106.200 C 214.072 105.540,213.671 104.942,213.513 104.871 C 213.355 104.800,213.121 104.080,212.994 103.271 C 212.867 102.462,212.569 100.664,212.332 99.276 C 211.790 96.108,212.508 94.478,214.972 93.276 C 217.301 92.141,217.531 92.096,224.600 91.376 C 228.120 91.018,231.060 90.562,231.133 90.363 C 231.419 89.585,232.887 90.063,234.113 91.333 M240.800 214.409 C 241.570 214.632,242.830 215.389,243.600 216.092 L 245.000 217.370 244.867 222.382 C 244.793 225.139,244.607 227.485,244.453 227.597 C 244.299 227.709,243.940 228.963,243.654 230.384 C 243.026 233.506,242.290 235.020,241.096 235.646 C 239.713 236.370,238.085 238.352,237.386 240.161 C 237.017 241.117,236.170 242.216,235.353 242.800 C 234.582 243.350,233.733 243.980,233.464 244.200 C 233.196 244.420,231.992 245.102,230.788 245.716 C 229.521 246.362,228.260 247.373,227.792 248.116 C 224.623 253.153,208.054 250.759,210.767 245.657 C 210.959 245.296,211.412 243.110,211.773 240.800 C 212.718 234.751,213.314 232.000,213.680 232.000 C 213.856 232.000,214.000 231.765,214.000 231.479 C 214.000 230.643,216.411 227.600,217.074 227.600 C 217.877 227.600,220.000 225.298,220.000 224.428 C 220.000 224.049,220.315 223.442,220.700 223.078 C 222.517 221.358,223.755 220.400,224.158 220.402 C 225.566 220.408,230.344 218.240,230.715 217.427 C 231.624 215.432,237.870 213.562,240.800 214.409 " stroke="none" fill="#fbe6ea" fill-rule="evenodd"></path><path id="path1" d="M173.600 63.555 C 173.600 63.750,172.745 64.034,171.700 64.188 C 166.958 64.883,165.198 66.580,164.361 71.265 C 164.092 72.769,163.721 74.000,163.536 74.000 C 163.351 74.000,163.200 74.345,163.200 74.767 C 163.200 76.543,161.470 77.086,157.465 76.567 C 153.246 76.020,147.870 76.420,145.511 77.457 C 141.541 79.202,141.372 85.416,145.206 88.698 C 146.083 89.448,146.800 90.318,146.800 90.631 C 146.800 90.944,147.153 91.553,147.583 91.983 C 148.014 92.414,148.732 93.482,149.178 94.356 C 149.624 95.230,150.150 96.046,150.348 96.168 C 150.546 96.290,150.829 97.200,150.978 98.190 C 151.126 99.180,151.501 100.244,151.810 100.553 C 153.483 102.226,153.541 103.106,153.728 129.600 C 153.905 154.707,154.383 163.568,155.608 164.400 C 155.770 164.510,156.029 165.410,156.185 166.400 C 156.853 170.653,158.565 174.400,159.841 174.400 C 160.110 174.400,160.961 175.527,161.731 176.904 C 164.612 182.055,172.159 188.400,175.406 188.400 C 175.767 188.400,176.773 189.118,177.642 189.995 C 179.885 192.261,181.279 192.857,185.673 193.428 C 189.130 193.878,189.699 194.071,190.966 195.223 L 192.385 196.515 192.492 267.357 C 192.612 346.194,192.402 340.482,195.238 342.100 C 196.869 343.031,203.297 343.090,205.099 342.190 C 207.890 340.798,207.788 342.207,207.902 303.400 C 208.011 266.407,207.937 267.761,209.959 265.539 C 210.835 264.576,211.291 264.451,214.862 264.196 C 217.028 264.041,218.800 263.775,218.800 263.606 C 218.800 263.436,219.475 263.110,220.300 262.880 C 222.096 262.380,228.117 259.941,228.400 259.598 C 228.510 259.465,229.911 259.045,231.514 258.664 C 235.329 257.759,237.369 256.658,238.367 254.965 C 238.815 254.208,239.662 253.405,240.251 253.181 C 240.839 252.957,241.963 252.150,242.749 251.387 C 243.534 250.624,244.323 250.000,244.503 250.000 C 244.682 250.000,245.171 249.200,245.590 248.223 C 246.060 247.127,246.794 246.217,247.506 245.849 C 248.976 245.088,250.644 242.575,251.235 240.228 C 251.488 239.223,251.821 238.400,251.974 238.400 C 252.128 238.400,252.552 237.455,252.916 236.300 C 253.281 235.145,254.118 233.610,254.777 232.888 C 256.969 230.491,257.840 226.506,258.254 217.000 C 258.650 207.896,256.951 203.956,252.100 202.733 C 251.165 202.498,250.400 202.170,250.400 202.006 C 250.400 201.841,249.545 201.544,248.500 201.346 C 246.403 200.948,240.800 201.452,240.800 202.038 C 240.800 202.237,240.416 202.400,239.947 202.400 C 239.478 202.400,238.533 202.744,237.847 203.164 C 237.161 203.584,235.070 204.249,233.200 204.642 C 231.330 205.035,229.710 205.472,229.600 205.614 C 229.490 205.756,228.230 206.093,226.800 206.363 C 223.390 207.008,221.014 208.172,219.917 209.734 C 218.800 211.327,218.072 211.883,216.763 212.146 C 215.512 212.398,211.204 216.282,211.191 217.169 C 211.186 217.516,210.878 217.170,210.508 216.400 C 210.137 215.630,209.693 214.901,209.522 214.779 C 208.520 214.071,208.008 210.294,208.004 203.574 L 208.000 196.547 209.486 195.232 C 210.808 194.062,211.391 193.862,214.786 193.419 C 219.027 192.866,221.354 191.886,222.667 190.101 C 223.296 189.246,224.302 188.675,226.325 188.024 C 230.343 186.732,236.020 181.640,238.615 177.000 C 239.415 175.570,240.290 174.400,240.559 174.400 C 241.732 174.400,243.984 169.769,243.996 167.333 C 243.998 166.857,244.166 166.407,244.369 166.333 C 245.849 165.798,246.501 155.416,246.676 129.600 C 246.848 104.170,246.933 102.652,248.268 101.287 C 248.756 100.787,249.593 98.288,249.598 97.318 C 249.600 96.838,251.015 94.528,252.243 93.000 C 252.596 92.560,253.134 91.626,253.438 90.924 C 253.742 90.222,254.613 89.173,255.373 88.593 C 258.973 85.848,258.717 78.979,254.958 77.408 C 252.629 76.435,247.002 76.042,242.935 76.568 C 238.414 77.152,237.412 76.684,236.976 73.783 C 236.829 72.802,236.570 72.000,236.400 72.000 C 236.230 72.000,235.971 71.203,235.825 70.229 C 235.296 66.700,233.494 65.089,229.153 64.264 C 227.859 64.018,226.800 63.678,226.800 63.508 C 226.800 63.339,224.820 63.200,222.400 63.200 C 219.980 63.200,218.000 63.352,218.000 63.539 C 218.000 63.725,216.065 63.998,213.700 64.145 C 211.335 64.292,208.320 64.659,207.000 64.960 C 202.794 65.920,199.857 66.785,199.625 67.132 C 198.851 68.291,195.626 68.415,195.135 67.305 C 194.618 66.138,188.901 64.532,183.900 64.149 C 181.975 64.001,180.400 63.727,180.400 63.540 C 180.400 63.353,178.870 63.200,177.000 63.200 C 175.130 63.200,173.600 63.360,173.600 63.555 M185.000 65.375 C 187.931 66.015,191.041 67.011,191.500 67.457 C 193.136 69.046,196.395 69.653,199.755 68.994 C 203.301 68.298,205.200 67.672,205.200 67.198 C 205.200 67.030,205.605 66.803,206.100 66.692 C 206.595 66.581,208.320 66.199,209.934 65.843 C 214.307 64.880,224.726 64.395,227.452 65.029 C 233.086 66.338,233.700 66.964,235.011 72.729 C 235.491 74.837,235.888 75.661,236.718 76.273 C 239.013 77.964,239.368 78.034,243.284 77.585 C 252.646 76.509,258.586 79.508,256.584 84.299 C 256.246 85.109,255.835 85.868,255.671 85.986 C 254.983 86.480,252.400 89.919,252.400 90.341 C 252.400 90.594,252.257 90.800,252.083 90.800 C 251.909 90.800,251.081 91.971,250.244 93.402 C 249.407 94.833,248.498 96.138,248.224 96.302 C 247.950 96.466,247.215 98.130,246.591 100.000 L 245.455 103.400 245.228 131.715 C 245.067 151.690,244.870 160.114,244.559 160.315 C 244.316 160.472,243.886 162.130,243.604 164.000 C 242.881 168.792,241.798 171.481,239.905 173.180 C 239.038 173.958,238.099 175.136,237.818 175.797 C 237.536 176.459,236.877 177.490,236.353 178.089 C 235.829 178.689,234.981 179.724,234.470 180.389 C 233.958 181.055,233.321 181.600,233.054 181.600 C 232.788 181.600,231.892 182.410,231.065 183.400 C 230.237 184.390,229.333 185.200,229.056 185.200 C 228.778 185.200,228.197 185.530,227.764 185.933 C 227.331 186.336,226.082 187.001,224.989 187.410 C 222.673 188.276,220.143 189.770,219.935 190.394 C 219.736 190.993,216.984 191.891,213.775 192.404 C 210.592 192.912,209.660 193.364,208.215 195.098 L 207.132 196.396 207.297 205.098 C 207.479 214.700,208.062 217.561,210.056 218.632 C 211.071 219.177,212.400 218.462,212.400 217.372 C 212.400 217.095,213.345 216.184,214.500 215.347 C 215.655 214.511,216.690 213.711,216.800 213.569 C 216.910 213.427,217.540 213.025,218.200 212.674 C 218.860 212.323,220.210 211.286,221.200 210.369 C 223.519 208.222,224.413 207.864,230.200 206.772 C 232.840 206.274,235.090 205.756,235.200 205.621 C 235.468 205.294,240.331 204.143,243.765 203.595 C 247.019 203.076,253.341 204.297,254.335 205.638 C 254.630 206.035,255.298 206.821,255.821 207.385 C 257.879 209.605,257.683 226.422,255.592 227.133 C 255.376 227.207,255.200 227.448,255.200 227.669 C 255.200 228.234,252.395 234.552,252.035 234.798 C 251.871 234.909,251.245 236.594,250.643 238.543 C 249.685 241.640,249.286 242.346,247.474 244.144 C 246.333 245.276,244.950 246.832,244.400 247.601 C 243.167 249.326,241.251 251.200,240.720 251.200 C 240.354 251.200,237.840 253.390,235.788 255.496 C 234.677 256.637,233.129 257.252,228.400 258.428 C 226.310 258.948,224.510 259.477,224.400 259.604 C 223.825 260.267,217.174 262.017,214.324 262.255 C 211.301 262.507,210.940 262.633,209.697 263.876 C 207.080 266.493,207.200 264.753,207.199 300.087 C 207.197 342.631,207.372 341.600,200.138 341.600 C 196.269 341.600,194.800 340.785,194.800 338.638 C 194.800 338.287,194.651 338.000,194.469 338.000 C 193.318 338.000,193.195 330.846,193.197 264.077 L 193.200 196.353 191.957 194.806 C 190.665 193.199,190.700 193.212,184.600 191.989 C 181.837 191.436,180.811 190.970,180.079 189.939 C 179.587 189.245,176.562 187.675,174.431 187.006 C 173.898 186.839,173.099 186.364,172.655 185.951 C 172.212 185.538,171.632 185.200,171.366 185.200 C 171.100 185.200,170.306 184.525,169.600 183.700 C 168.895 182.875,167.841 181.917,167.259 181.570 C 166.676 181.224,165.788 180.324,165.285 179.570 C 164.783 178.817,163.928 177.686,163.385 177.059 C 162.843 176.431,162.400 175.687,162.400 175.405 C 162.400 175.124,161.663 174.228,160.763 173.414 C 158.237 171.132,156.013 163.884,156.003 157.900 C 156.001 157.075,155.834 156.400,155.630 156.400 C 155.409 156.400,155.201 145.760,155.113 129.900 L 154.965 103.400 153.830 100.000 C 153.206 98.130,152.386 96.330,152.008 96.000 C 151.187 95.283,148.400 90.685,148.400 90.048 C 148.400 89.801,148.244 89.600,148.054 89.600 C 147.863 89.600,147.057 88.745,146.263 87.700 C 145.468 86.655,144.632 85.580,144.403 85.311 C 140.359 80.543,147.147 76.440,157.173 77.591 L 160.947 78.024 162.763 76.902 C 164.261 75.975,164.661 75.465,165.047 73.989 C 165.304 73.005,165.737 71.346,166.009 70.302 C 167.272 65.450,175.534 63.306,185.000 65.375 M185.800 81.791 C 184.700 82.074,184.190 82.326,184.667 82.352 C 185.143 82.379,185.604 82.613,185.691 82.874 C 185.954 83.663,191.705 83.548,192.519 82.736 C 193.895 81.365,189.735 80.779,185.800 81.791 M169.410 93.495 C 168.756 93.592,167.781 94.110,167.243 94.648 L 166.266 95.625 166.338 120.113 C 166.412 145.383,166.662 154.800,167.256 154.800 C 167.445 154.800,167.600 155.134,167.600 155.541 C 167.600 156.760,170.573 164.398,171.204 164.800 C 171.376 164.910,171.734 165.809,172.000 166.797 C 172.506 168.679,173.970 170.292,177.965 173.366 C 179.084 174.227,180.001 175.127,180.003 175.366 C 180.008 176.268,182.701 177.516,185.700 178.006 C 187.405 178.285,188.800 178.668,188.800 178.857 C 188.800 179.045,191.230 179.200,194.200 179.200 C 197.170 179.200,199.600 179.045,199.600 178.856 C 199.600 178.666,200.655 178.415,201.945 178.298 C 206.141 177.918,213.888 172.291,216.054 168.051 C 216.350 167.473,217.174 166.460,217.885 165.800 C 219.404 164.392,220.800 161.033,220.800 158.785 C 220.800 157.913,220.980 157.200,221.200 157.200 C 221.451 157.200,221.600 154.600,221.600 150.200 C 221.600 146.350,221.444 143.200,221.254 143.200 C 221.063 143.200,220.815 141.985,220.702 140.500 C 220.370 136.154,219.213 132.099,217.905 130.699 C 216.426 129.115,216.160 128.592,214.953 124.895 C 214.400 123.201,213.824 121.722,213.674 121.607 C 213.523 121.493,212.881 120.361,212.246 119.091 C 211.599 117.795,210.417 116.247,209.552 115.562 C 208.705 114.891,207.674 113.590,207.262 112.671 C 206.251 110.418,204.509 108.552,202.737 107.822 C 201.884 107.471,200.634 106.390,199.737 105.227 C 198.892 104.131,198.009 103.226,197.775 103.217 C 197.542 103.208,196.973 102.848,196.510 102.417 C 196.048 101.986,193.989 100.984,191.935 100.189 C 189.881 99.394,188.020 98.527,187.800 98.261 C 186.978 97.270,183.438 95.206,182.143 94.963 C 181.404 94.824,180.800 94.582,180.800 94.425 C 180.800 93.669,172.712 93.009,169.410 93.495 M222.100 93.685 C 220.725 93.920,219.600 94.267,219.600 94.456 C 219.600 94.645,219.358 94.800,219.061 94.800 C 218.367 94.800,216.087 95.935,215.779 96.435 C 215.648 96.646,215.669 98.448,215.825 100.440 L 216.108 104.062 219.054 106.989 C 220.674 108.599,222.000 110.110,222.000 110.347 C 222.000 112.031,224.247 115.354,225.872 116.073 C 228.699 117.324,230.275 119.218,230.966 122.200 C 231.862 126.065,232.022 126.435,232.565 125.892 C 233.811 124.646,234.812 97.040,233.681 95.113 C 232.676 93.402,227.499 92.764,222.100 93.685 M176.369 94.800 C 178.742 94.800,183.454 96.456,184.472 97.648 C 185.575 98.939,187.701 100.073,190.360 100.789 C 191.193 101.013,192.290 101.558,192.798 101.998 C 193.307 102.439,193.974 102.800,194.281 102.800 C 195.327 102.800,197.143 103.989,197.417 104.854 C 197.793 106.038,199.457 107.491,201.557 108.469 C 203.362 109.310,205.165 111.014,205.187 111.900 C 205.194 112.175,205.362 112.400,205.561 112.400 C 205.759 112.400,206.098 112.895,206.313 113.500 C 206.832 114.958,208.997 117.625,210.111 118.179 C 210.687 118.466,211.414 119.674,212.176 121.611 C 212.823 123.255,213.469 124.690,213.611 124.800 C 213.754 124.910,214.089 125.882,214.356 126.960 C 214.964 129.415,215.669 130.788,217.154 132.414 C 221.302 136.955,221.583 162.896,217.500 164.226 C 216.674 164.495,214.811 166.829,214.776 167.638 C 214.763 167.947,213.660 169.190,212.326 170.400 C 210.992 171.610,209.128 173.353,208.183 174.273 C 205.735 176.657,204.747 177.042,199.750 177.557 C 191.843 178.371,182.309 177.070,181.232 175.031 C 180.220 173.114,178.258 171.356,175.640 170.021 C 173.811 169.087,173.591 168.705,172.558 164.658 C 172.173 163.150,171.625 161.682,171.340 161.397 C 171.054 161.111,170.638 160.095,170.415 159.139 C 169.921 157.024,169.047 154.514,168.674 154.141 C 168.523 153.990,168.402 142.962,168.404 129.633 C 168.408 106.086,168.070 97.833,167.073 97.147 C 165.939 96.367,168.529 95.152,171.821 94.920 C 173.838 94.777,175.213 94.504,175.232 94.241 C 175.250 93.982,175.346 94.006,175.465 94.300 C 175.576 94.575,175.983 94.800,176.369 94.800 M228.888 94.933 C 232.926 95.266,233.541 95.771,233.282 98.536 C 233.176 99.671,232.902 100.720,232.674 100.867 C 232.428 101.026,232.185 103.829,232.078 107.767 L 231.896 114.400 228.548 114.400 C 225.839 114.400,225.200 114.286,225.200 113.800 C 225.200 113.470,225.024 113.200,224.808 113.200 C 224.363 113.200,223.035 110.708,222.672 109.192 C 222.403 108.066,221.690 107.239,219.259 105.229 L 217.600 103.858 217.600 100.119 C 217.600 95.799,217.436 95.969,222.454 95.108 C 223.964 94.849,225.203 94.449,225.206 94.219 C 225.210 93.945,225.314 93.952,225.506 94.239 C 225.668 94.481,227.190 94.793,228.888 94.933 M238.400 217.114 C 238.400 217.475,234.638 219.297,232.016 220.206 C 231.035 220.545,230.135 220.953,230.016 221.112 C 229.897 221.270,228.451 221.860,226.802 222.421 C 224.361 223.252,223.638 223.699,222.915 224.821 C 221.058 227.706,219.303 229.703,217.466 231.024 C 214.528 233.137,213.321 244.854,215.774 247.455 C 217.169 248.934,220.302 249.295,220.725 248.026 C 220.803 247.792,221.099 247.600,221.382 247.600 C 222.339 247.600,225.445 246.035,226.584 244.980 C 227.205 244.404,228.932 243.443,230.421 242.845 C 233.818 241.480,234.120 241.222,235.167 238.787 C 235.638 237.694,236.197 236.800,236.411 236.800 C 236.625 236.800,236.800 236.592,236.800 236.337 C 236.800 235.923,239.467 232.178,240.672 230.900 C 242.845 228.595,242.789 219.780,240.587 217.700 C 239.659 216.823,238.400 216.485,238.400 217.114 M240.441 220.400 C 241.716 221.370,241.624 228.400,240.336 228.400 C 240.151 228.400,240.000 228.641,240.000 228.936 C 240.000 229.566,238.323 231.931,236.540 233.815 C 235.847 234.548,235.060 235.834,234.792 236.674 C 233.646 240.269,233.268 240.724,230.863 241.414 C 229.618 241.771,227.812 242.499,226.850 243.032 C 225.887 243.564,224.934 244.000,224.733 244.000 C 224.531 244.000,223.974 244.366,223.493 244.813 C 220.891 247.238,216.948 248.005,216.263 246.220 C 215.214 243.486,215.990 233.600,217.254 233.600 C 217.444 233.600,217.600 233.245,217.600 232.810 C 217.600 232.356,218.068 231.773,218.700 231.439 C 220.646 230.410,222.416 228.462,223.374 226.298 L 224.307 224.187 228.854 222.885 C 231.354 222.169,233.625 221.587,233.900 221.592 C 234.175 221.596,234.400 221.448,234.400 221.263 C 234.400 221.078,235.103 220.716,235.961 220.459 C 236.820 220.202,237.945 219.645,238.461 219.221 C 239.393 218.457,239.403 218.458,239.789 219.326 C 240.003 219.807,240.296 220.290,240.441 220.400 " stroke="none" fill="#ec647c" fill-rule="evenodd"></path><path id="path2" d="M172.448 65.221 C 168.006 66.275,166.812 67.218,166.009 70.302 C 165.737 71.346,165.304 73.005,165.047 73.989 C 164.661 75.465,164.261 75.975,162.763 76.902 L 160.947 78.024 157.173 77.591 C 148.278 76.569,141.949 79.457,143.594 83.785 C 143.811 84.355,144.175 85.041,144.403 85.311 C 144.632 85.580,145.468 86.655,146.263 87.700 C 147.057 88.745,147.863 89.600,148.054 89.600 C 148.244 89.600,148.400 89.801,148.400 90.048 C 148.400 90.685,151.187 95.283,152.008 96.000 C 152.386 96.330,153.206 98.130,153.830 100.000 L 154.965 103.400 155.113 129.900 C 155.201 145.760,155.409 156.400,155.630 156.400 C 155.834 156.400,156.001 157.075,156.003 157.900 C 156.013 163.884,158.237 171.132,160.763 173.414 C 161.663 174.228,162.400 175.124,162.400 175.405 C 162.400 175.687,162.843 176.431,163.385 177.059 C 163.928 177.686,164.783 178.817,165.285 179.570 C 165.788 180.324,166.676 181.224,167.259 181.570 C 167.841 181.917,168.895 182.875,169.600 183.700 C 170.306 184.525,171.100 185.200,171.366 185.200 C 171.632 185.200,172.212 185.538,172.655 185.951 C 173.099 186.364,173.898 186.839,174.431 187.006 C 176.562 187.675,179.587 189.245,180.079 189.939 C 180.811 190.970,181.837 191.436,184.600 191.989 C 190.700 193.212,190.665 193.199,191.957 194.806 L 193.200 196.353 193.197 264.077 C 193.195 330.846,193.318 338.000,194.469 338.000 C 194.651 338.000,194.800 338.287,194.800 338.638 C 194.800 340.785,196.269 341.600,200.138 341.600 C 207.372 341.600,207.197 342.631,207.199 300.087 C 207.200 264.753,207.080 266.493,209.697 263.876 C 210.940 262.633,211.301 262.507,214.324 262.255 C 217.174 262.017,223.825 260.267,224.400 259.604 C 224.510 259.477,226.310 258.948,228.400 258.428 C 233.129 257.252,234.677 256.637,235.788 255.496 C 237.840 253.390,240.354 251.200,240.720 251.200 C 241.251 251.200,243.167 249.326,244.400 247.601 C 244.950 246.832,246.333 245.276,247.474 244.144 C 249.286 242.346,249.685 241.640,250.643 238.543 C 251.245 236.594,251.871 234.909,252.035 234.798 C 252.395 234.552,255.200 228.234,255.200 227.669 C 255.200 227.448,255.376 227.207,255.592 227.133 C 257.683 226.422,257.879 209.605,255.821 207.385 C 255.298 206.821,254.630 206.035,254.335 205.638 C 253.341 204.297,247.019 203.076,243.765 203.595 C 240.331 204.143,235.468 205.294,235.200 205.621 C 235.090 205.756,232.840 206.274,230.200 206.772 C 224.413 207.864,223.519 208.222,221.200 210.369 C 220.210 211.286,218.860 212.323,218.200 212.674 C 217.540 213.025,216.910 213.427,216.800 213.569 C 216.690 213.711,215.655 214.511,214.500 215.347 C 213.345 216.184,212.400 217.095,212.400 217.372 C 212.400 218.462,211.071 219.177,210.056 218.632 C 208.062 217.561,207.479 214.700,207.297 205.098 L 207.132 196.396 208.215 195.098 C 209.660 193.364,210.592 192.912,213.775 192.404 C 216.984 191.891,219.736 190.993,219.935 190.394 C 220.143 189.770,222.673 188.276,224.989 187.410 C 226.082 187.001,227.331 186.336,227.764 185.933 C 228.197 185.530,228.778 185.200,229.056 185.200 C 229.333 185.200,230.237 184.390,231.065 183.400 C 231.892 182.410,232.788 181.600,233.054 181.600 C 233.321 181.600,233.958 181.055,234.470 180.389 C 234.981 179.724,235.829 178.689,236.353 178.089 C 236.877 177.490,237.536 176.459,237.818 175.797 C 238.099 175.136,239.038 173.958,239.905 173.180 C 241.798 171.481,242.881 168.792,243.604 164.000 C 243.886 162.130,244.316 160.472,244.559 160.315 C 244.870 160.114,245.067 151.690,245.228 131.715 L 245.455 103.400 246.591 100.000 C 247.215 98.130,247.950 96.466,248.224 96.302 C 248.498 96.138,249.407 94.833,250.244 93.402 C 251.081 91.971,251.909 90.800,252.083 90.800 C 252.257 90.800,252.400 90.594,252.400 90.341 C 252.400 89.919,254.983 86.480,255.671 85.986 C 255.835 85.868,256.246 85.109,256.584 84.299 C 258.586 79.508,252.646 76.509,243.284 77.585 C 239.368 78.034,239.013 77.964,236.718 76.273 C 235.888 75.661,235.491 74.837,235.011 72.729 C 233.700 66.964,233.086 66.338,227.452 65.029 C 224.726 64.395,214.307 64.880,209.934 65.843 C 208.320 66.199,206.595 66.581,206.100 66.692 C 205.605 66.803,205.200 67.030,205.200 67.198 C 205.200 67.672,203.301 68.298,199.755 68.994 C 196.395 69.653,193.136 69.046,191.500 67.457 C 191.041 67.011,187.931 66.015,185.000 65.375 C 181.835 64.683,175.063 64.600,172.448 65.221 M226.400 67.162 C 226.400 67.315,226.993 67.654,227.718 67.916 C 228.694 68.269,229.176 68.783,229.575 69.896 C 229.871 70.723,230.628 72.152,231.257 73.072 C 231.885 73.992,232.400 74.949,232.400 75.199 C 232.400 75.449,233.028 76.316,233.797 77.127 C 234.565 77.937,235.195 78.722,235.197 78.872 C 235.207 79.659,239.805 80.437,242.871 80.170 C 251.927 79.380,257.164 81.967,252.519 84.937 C 251.357 85.680,250.765 86.493,250.000 88.394 C 249.286 90.167,248.222 91.696,246.284 93.732 C 244.791 95.302,243.475 97.039,243.360 97.593 C 243.246 98.147,243.042 98.960,242.907 99.400 C 242.773 99.840,242.546 113.700,242.404 130.200 C 242.175 156.684,242.060 160.666,241.420 164.174 L 240.697 168.148 238.130 170.714 C 236.502 172.342,235.474 173.729,235.318 174.508 C 235.146 175.370,233.836 176.950,230.931 179.803 C 226.386 184.267,226.055 184.484,222.683 185.226 C 221.408 185.507,219.968 186.087,219.483 186.516 C 218.997 186.944,217.855 187.619,216.944 188.015 C 216.033 188.410,215.181 188.908,215.049 189.121 C 214.917 189.334,213.998 189.629,213.005 189.778 C 212.012 189.927,211.200 190.189,211.200 190.361 C 211.200 190.533,210.456 190.896,209.547 191.168 C 207.733 191.712,205.640 193.575,204.885 195.319 C 204.346 196.562,204.240 210.934,204.733 215.800 C 205.464 223.001,212.488 224.642,215.405 218.294 C 216.033 216.927,220.051 214.400,221.597 214.400 C 221.784 214.400,222.446 213.601,223.069 212.624 C 224.007 211.151,224.524 210.763,226.100 210.348 C 227.145 210.074,228.000 209.732,228.000 209.588 C 228.000 209.146,233.652 208.314,241.595 207.587 C 248.195 206.984,253.629 207.934,254.543 209.850 C 255.881 212.655,253.790 226.000,252.013 226.000 C 251.408 226.000,249.355 233.161,248.600 237.900 C 248.451 238.835,248.166 239.600,247.965 239.600 C 247.764 239.600,247.600 239.864,247.600 240.188 C 247.600 240.511,246.604 241.413,245.386 242.192 C 244.168 242.971,243.066 243.921,242.938 244.304 C 241.699 247.985,240.882 248.772,236.605 250.398 C 236.005 250.626,235.329 251.420,234.910 252.388 C 234.166 254.105,232.503 255.200,230.640 255.200 C 230.068 255.200,229.600 255.344,229.600 255.520 C 229.600 255.697,228.295 256.057,226.700 256.320 C 221.261 257.220,216.204 257.948,213.620 258.203 C 210.116 258.549,207.716 260.222,206.308 263.300 C 206.031 263.905,205.684 264.400,205.536 264.400 C 204.580 264.400,204.400 270.140,204.400 300.570 C 204.400 318.241,204.288 333.263,204.150 333.950 L 203.900 335.200 200.200 335.200 L 196.500 335.200 196.250 333.950 C 196.113 333.263,196.000 302.084,196.000 264.663 C 196.000 188.371,196.241 194.322,193.073 192.249 C 192.153 191.647,190.905 191.052,190.300 190.927 C 189.695 190.802,189.200 190.554,189.200 190.375 C 189.200 190.195,188.401 189.929,187.424 189.783 C 186.447 189.636,185.349 189.185,184.983 188.781 C 184.617 188.376,183.820 187.936,183.213 187.803 C 182.605 187.669,181.704 187.183,181.209 186.723 C 180.714 186.262,179.065 185.558,177.544 185.159 C 174.095 184.253,172.566 183.366,171.968 181.924 C 171.712 181.306,171.390 180.799,171.251 180.798 C 171.113 180.797,170.460 180.296,169.800 179.685 C 169.140 179.074,168.054 178.190,167.386 177.721 C 166.173 176.868,165.881 176.410,164.631 173.397 C 164.265 172.516,163.508 171.436,162.948 170.997 C 160.689 169.229,160.000 168.392,160.000 167.418 C 160.000 166.858,159.852 166.400,159.672 166.400 C 158.582 166.400,158.265 159.522,158.004 130.200 C 157.857 113.700,157.627 99.840,157.493 99.400 C 157.358 98.960,157.144 98.106,157.017 97.501 C 156.890 96.897,155.934 95.527,154.893 94.457 C 151.955 91.436,151.453 90.759,150.410 88.400 C 149.195 85.650,148.944 85.313,147.660 84.697 C 142.647 82.293,148.986 79.424,157.642 80.180 C 162.473 80.601,168.000 78.002,168.000 75.308 C 168.000 74.998,168.515 73.992,169.145 73.072 C 169.775 72.152,170.417 70.995,170.572 70.500 C 170.727 70.005,171.022 69.600,171.227 69.600 C 171.432 69.600,171.600 69.314,171.600 68.965 C 171.600 68.616,172.140 68.127,172.800 67.878 C 173.460 67.628,174.000 67.284,174.000 67.112 C 174.000 66.941,175.350 66.800,177.000 66.800 C 178.650 66.800,180.000 66.957,180.000 67.149 C 180.000 67.341,180.855 67.583,181.900 67.686 C 183.032 67.798,184.407 68.289,185.302 68.900 C 186.128 69.465,187.703 70.158,188.802 70.439 C 189.901 70.721,190.800 71.082,190.800 71.242 C 190.800 72.592,205.018 72.601,205.998 71.252 C 206.109 71.099,207.550 70.459,209.200 69.829 C 210.850 69.199,212.380 68.548,212.600 68.381 C 212.820 68.215,214.215 67.950,215.700 67.793 C 217.185 67.635,218.400 67.355,218.400 67.169 C 218.400 66.983,219.975 66.779,221.900 66.716 C 225.508 66.596,226.400 66.685,226.400 67.162 M180.864 79.252 C 180.168 79.993,179.496 80.915,179.372 81.300 C 179.248 81.685,178.933 82.003,178.673 82.006 C 178.375 82.010,178.348 82.121,178.600 82.306 C 178.820 82.468,179.194 82.951,179.431 83.380 C 180.246 84.856,181.819 85.659,184.339 85.888 C 185.692 86.011,186.800 86.240,186.800 86.399 C 186.800 86.557,187.910 86.802,189.266 86.944 C 191.990 87.229,194.804 88.623,195.838 90.202 C 196.460 91.151,198.610 91.258,199.204 90.369 C 199.316 90.201,199.894 89.942,200.488 89.792 C 201.512 89.535,201.536 89.475,200.964 88.601 C 200.632 88.094,200.252 86.393,200.120 84.820 C 199.848 81.571,198.442 79.864,195.610 79.344 C 194.835 79.201,194.079 78.897,193.930 78.667 C 193.772 78.424,191.264 78.178,187.896 78.077 L 182.131 77.903 180.864 79.252 M191.932 81.636 C 193.100 82.043,193.139 82.118,192.519 82.736 C 191.705 83.548,185.954 83.663,185.691 82.874 C 185.604 82.613,185.143 82.379,184.667 82.352 C 183.419 82.284,187.524 81.284,189.240 81.238 C 190.032 81.217,191.244 81.396,191.932 81.636 M217.893 81.703 C 217.772 82.016,217.812 82.496,217.981 82.770 C 218.218 83.153,218.339 83.137,218.507 82.697 C 218.628 82.384,218.588 81.904,218.419 81.630 C 218.182 81.247,218.061 81.263,217.893 81.703 M167.260 90.520 C 165.268 92.292,164.324 93.482,164.127 94.467 C 164.002 95.090,163.743 95.600,163.550 95.600 C 163.358 95.600,163.200 97.130,163.200 99.000 C 163.200 101.000,163.365 102.400,163.600 102.400 C 163.863 102.400,164.000 111.434,164.001 128.700 C 164.001 160.124,164.296 162.995,167.639 164.187 C 168.364 164.446,168.865 165.431,170.030 168.890 C 170.920 171.531,171.735 172.443,174.263 173.626 C 175.399 174.158,176.261 174.975,176.980 176.203 C 177.560 177.191,178.302 178.000,178.629 178.000 C 178.957 178.000,179.325 178.261,179.448 178.581 C 180.713 181.876,209.200 182.056,209.200 178.768 C 209.200 178.566,209.429 178.400,209.709 178.400 C 210.468 178.400,213.200 176.029,213.200 175.371 C 213.200 175.057,213.449 174.800,213.754 174.800 C 214.058 174.800,215.093 173.896,216.054 172.792 C 217.014 171.688,218.340 170.195,219.000 169.474 C 222.952 165.160,223.406 163.163,223.383 150.200 C 223.363 138.328,222.425 129.600,221.169 129.600 C 220.966 129.600,220.800 129.359,220.800 129.064 C 220.800 128.770,220.080 127.862,219.200 127.048 C 218.168 126.093,217.600 125.218,217.600 124.584 C 217.600 124.043,217.440 123.600,217.243 123.600 C 217.047 123.600,216.765 123.105,216.616 122.500 C 215.611 118.423,214.252 115.573,212.917 114.749 C 210.964 113.542,208.823 111.237,208.531 110.028 C 208.121 108.327,206.870 106.885,205.376 106.392 C 203.897 105.904,200.400 102.678,200.400 101.801 C 200.400 101.151,199.214 100.422,196.200 99.219 C 194.880 98.692,193.710 98.157,193.600 98.030 C 193.490 97.904,192.556 97.403,191.525 96.917 C 190.493 96.432,189.240 95.480,188.739 94.803 C 187.467 93.083,184.115 92.182,176.000 91.381 C 172.370 91.022,169.340 90.564,169.267 90.364 C 169.080 89.855,167.906 89.946,167.260 90.520 M231.133 90.363 C 231.060 90.562,228.120 91.018,224.600 91.376 C 217.531 92.096,217.301 92.141,214.972 93.276 C 212.508 94.478,211.790 96.108,212.332 99.276 C 212.569 100.664,212.867 102.462,212.994 103.271 C 213.121 104.080,213.355 104.800,213.513 104.871 C 213.671 104.942,214.072 105.540,214.404 106.200 C 214.762 106.912,215.712 107.739,216.739 108.233 C 218.821 109.235,218.979 109.458,220.043 112.900 C 220.502 114.385,221.028 115.600,221.212 115.600 C 221.396 115.600,221.672 116.005,221.826 116.500 C 222.235 117.812,224.372 120.400,225.046 120.400 C 225.365 120.400,225.740 120.715,225.881 121.100 C 226.021 121.485,226.471 122.236,226.880 122.769 C 227.288 123.301,227.819 124.516,228.059 125.469 C 228.299 126.421,228.639 127.200,228.816 127.200 C 228.992 127.200,229.254 127.734,229.397 128.387 C 229.540 129.039,230.058 130.164,230.548 130.887 C 231.038 131.609,231.558 132.512,231.704 132.893 C 231.973 133.595,233.200 133.470,233.200 132.741 C 233.200 132.536,233.557 131.880,233.994 131.284 C 234.853 130.112,235.989 126.735,235.996 125.333 C 235.998 124.857,236.161 124.407,236.358 124.333 C 237.214 124.014,237.064 94.677,236.200 93.633 C 233.569 90.452,231.574 89.164,231.133 90.363 M177.700 93.667 C 179.405 93.926,180.800 94.267,180.800 94.425 C 180.800 94.582,181.404 94.824,182.143 94.963 C 183.438 95.206,186.978 97.270,187.800 98.261 C 188.020 98.527,189.881 99.394,191.935 100.189 C 193.989 100.984,196.048 101.986,196.510 102.417 C 196.973 102.848,197.542 103.208,197.775 103.217 C 198.009 103.226,198.892 104.131,199.737 105.227 C 200.634 106.390,201.884 107.471,202.737 107.822 C 204.509 108.552,206.251 110.418,207.262 112.671 C 207.674 113.590,208.705 114.891,209.552 115.562 C 210.417 116.247,211.599 117.795,212.246 119.091 C 212.881 120.361,213.523 121.493,213.674 121.607 C 213.824 121.722,214.400 123.201,214.953 124.895 C 216.160 128.592,216.426 129.115,217.905 130.699 C 219.213 132.099,220.370 136.154,220.702 140.500 C 220.815 141.985,221.063 143.200,221.254 143.200 C 221.444 143.200,221.600 146.350,221.600 150.200 C 221.600 154.600,221.451 157.200,221.200 157.200 C 220.980 157.200,220.800 157.913,220.800 158.785 C 220.800 161.033,219.404 164.392,217.885 165.800 C 217.174 166.460,216.350 167.473,216.054 168.051 C 213.888 172.291,206.141 177.918,201.945 178.298 C 200.655 178.415,199.600 178.666,199.600 178.856 C 199.600 179.045,197.170 179.200,194.200 179.200 C 191.230 179.200,188.800 179.045,188.800 178.857 C 188.800 178.668,187.405 178.285,185.700 178.006 C 182.701 177.516,180.008 176.268,180.003 175.366 C 180.001 175.127,179.084 174.227,177.965 173.366 C 173.970 170.292,172.506 168.679,172.000 166.797 C 171.734 165.809,171.376 164.910,171.204 164.800 C 170.573 164.398,167.600 156.760,167.600 155.541 C 167.600 155.134,167.445 154.800,167.256 154.800 C 166.662 154.800,166.412 145.383,166.338 120.113 L 166.266 95.625 167.243 94.648 C 168.694 93.197,172.358 92.853,177.700 93.667 M232.421 93.780 C 234.255 94.503,234.342 95.381,233.953 109.200 C 233.562 123.065,233.396 125.061,232.565 125.892 C 232.022 126.435,231.862 126.065,230.966 122.200 C 230.275 119.218,228.699 117.324,225.872 116.073 C 224.247 115.354,222.000 112.031,222.000 110.347 C 222.000 110.110,220.674 108.599,219.054 106.989 L 216.108 104.062 215.825 100.440 C 215.669 98.448,215.648 96.646,215.779 96.435 C 216.087 95.935,218.367 94.800,219.061 94.800 C 219.358 94.800,219.600 94.645,219.600 94.456 C 219.600 93.523,230.335 92.958,232.421 93.780 M236.052 214.630 C 232.968 215.460,231.186 216.394,230.715 217.427 C 230.344 218.240,225.566 220.408,224.158 220.402 C 223.755 220.400,222.517 221.358,220.700 223.078 C 220.315 223.442,220.000 224.049,220.000 224.428 C 220.000 225.298,217.877 227.600,217.074 227.600 C 216.411 227.600,214.000 230.643,214.000 231.479 C 214.000 231.765,213.856 232.000,213.680 232.000 C 213.314 232.000,212.718 234.751,211.773 240.800 C 211.412 243.110,210.959 245.296,210.767 245.657 C 208.054 250.759,224.623 253.153,227.792 248.116 C 228.260 247.373,229.521 246.362,230.788 245.716 C 231.992 245.102,233.196 244.420,233.464 244.200 C 233.733 243.980,234.582 243.350,235.353 242.800 C 236.170 242.216,237.017 241.117,237.386 240.161 C 238.085 238.352,239.713 236.370,241.096 235.646 C 242.290 235.020,243.026 233.506,243.654 230.384 C 243.940 228.963,244.299 227.709,244.453 227.597 C 244.607 227.485,244.793 225.139,244.867 222.382 L 245.000 217.370 243.600 216.092 C 241.347 214.035,239.555 213.688,236.052 214.630 M240.587 217.700 C 242.789 219.780,242.845 228.595,240.672 230.900 C 239.467 232.178,236.800 235.923,236.800 236.337 C 236.800 236.592,236.625 236.800,236.411 236.800 C 236.197 236.800,235.638 237.694,235.167 238.787 C 234.120 241.222,233.818 241.480,230.421 242.845 C 228.932 243.443,227.205 244.404,226.584 244.980 C 225.445 246.035,222.339 247.600,221.382 247.600 C 221.099 247.600,220.803 247.792,220.725 248.026 C 220.302 249.295,217.169 248.934,215.774 247.455 C 213.321 244.854,214.528 233.137,217.466 231.024 C 219.303 229.703,221.058 227.706,222.915 224.821 C 223.638 223.699,224.361 223.252,226.802 222.421 C 228.451 221.860,229.897 221.270,230.016 221.112 C 230.135 220.953,231.035 220.545,232.016 220.206 C 234.638 219.297,238.400 217.475,238.400 217.114 C 238.400 216.485,239.659 216.823,240.587 217.700 " stroke="none" fill="#f49cac" fill-rule="evenodd"></path><path id="path3" d="M146.400 1.781 L 146.400 3.562 135.985 3.681 C 128.703 3.764,125.484 3.938,125.285 4.259 C 125.128 4.511,124.248 4.919,123.329 5.166 C 121.357 5.696,119.744 7.427,119.371 9.412 L 119.111 10.800 114.255 10.829 C 105.165 10.884,104.000 11.340,104.000 14.844 C 104.000 17.926,103.918 17.999,100.457 18.008 C 93.221 18.027,90.000 19.186,90.000 21.772 C 90.000 22.283,89.889 23.256,89.753 23.935 L 89.506 25.170 86.053 25.285 L 82.600 25.400 82.381 28.486 C 82.115 32.235,82.797 31.775,76.601 32.384 C 69.268 33.105,68.944 33.303,68.448 37.372 L 68.200 39.400 65.360 39.600 C 61.700 39.858,61.306 40.216,60.974 43.589 L 60.705 46.315 57.775 46.589 C 54.249 46.920,54.025 47.148,53.726 50.712 L 53.493 53.493 50.712 53.726 C 47.141 54.025,46.920 54.245,46.585 57.822 L 46.306 60.800 44.853 60.810 C 43.230 60.820,40.480 61.388,40.068 61.797 C 39.921 61.944,39.710 63.430,39.600 65.100 L 39.400 68.136 37.040 68.768 C 33.638 69.679,32.009 73.457,32.002 80.457 C 32.000 82.209,31.627 82.400,28.210 82.400 C 25.229 82.400,25.200 82.440,25.200 86.576 L 25.200 89.486 22.708 89.747 C 18.661 90.170,18.112 91.356,18.034 99.857 C 17.996 103.984,17.983 104.000,14.844 104.000 C 11.373 104.000,10.886 105.197,10.829 113.865 L 10.800 118.330 9.100 118.612 C 6.990 118.963,5.376 119.765,5.045 120.626 C 4.101 123.087,3.601 127.614,3.600 133.700 L 3.600 140.400 1.800 140.400 L 0.000 140.400 0.000 200.000 L 0.000 259.600 1.800 259.600 L 3.600 259.600 3.600 266.300 C 3.601 272.386,4.101 276.913,5.045 279.374 C 5.373 280.228,6.987 281.037,9.048 281.379 L 10.696 281.653 10.880 288.019 C 11.085 295.143,11.393 295.996,13.762 296.004 C 14.443 296.007,15.675 296.120,16.500 296.257 L 18.000 296.505 18.034 300.152 C 18.112 308.643,18.662 309.831,22.708 310.253 L 25.200 310.514 25.200 313.867 C 25.200 317.777,25.437 318.000,29.579 318.000 L 31.905 318.000 32.186 321.370 C 32.366 323.534,32.652 324.811,32.983 324.938 C 33.267 325.047,33.625 325.808,33.779 326.628 C 34.135 328.526,35.861 330.263,37.744 330.616 C 39.360 330.919,39.416 331.040,39.756 335.000 C 39.998 337.818,40.869 338.797,43.144 338.805 C 46.129 338.817,46.285 338.971,46.588 342.213 C 46.920 345.752,47.146 345.975,50.713 346.274 L 53.495 346.507 53.759 349.351 C 54.090 352.911,54.329 353.137,58.112 353.456 L 61.200 353.717 61.206 355.559 C 61.219 359.529,62.554 360.283,70.267 360.673 L 75.200 360.923 75.200 363.982 C 75.200 367.797,75.395 368.000,79.062 368.000 L 81.964 368.000 82.181 369.300 C 82.301 370.015,82.444 371.500,82.499 372.600 L 82.600 374.600 86.488 374.714 L 90.377 374.829 90.790 376.362 C 91.385 378.571,92.601 379.910,94.521 380.470 C 95.445 380.740,96.344 381.194,96.520 381.480 C 96.743 381.843,97.903 382.000,100.364 382.000 L 103.889 382.000 104.137 384.094 C 104.660 388.512,105.413 388.811,116.700 389.089 L 125.200 389.298 125.206 392.149 C 125.215 396.478,124.436 396.182,136.185 396.319 L 146.400 396.438 146.400 398.219 L 146.400 400.000 200.000 400.000 L 253.600 400.000 253.600 398.219 L 253.600 396.438 263.783 396.319 C 275.704 396.180,275.166 396.388,275.187 391.900 L 275.200 389.200 281.700 389.182 C 294.235 389.149,295.612 388.687,295.921 384.416 L 296.096 382.000 299.628 382.000 C 302.096 382.000,303.257 381.843,303.480 381.480 C 303.656 381.194,304.555 380.740,305.479 380.470 C 307.402 379.909,308.616 378.570,309.214 376.348 L 309.631 374.800 313.401 374.800 C 317.864 374.800,318.000 374.677,318.000 370.626 L 318.000 368.000 320.967 368.000 C 325.285 368.000,325.200 368.076,325.200 364.218 L 325.200 360.922 329.900 360.685 C 337.390 360.306,338.781 359.504,338.794 355.558 L 338.800 353.715 341.859 353.484 C 345.642 353.198,345.972 352.886,346.271 349.322 L 346.507 346.507 349.322 346.271 C 352.826 345.977,353.177 345.624,353.473 342.100 C 353.735 338.975,353.898 338.817,356.856 338.805 C 358.967 338.798,359.960 337.794,360.223 335.400 C 360.724 330.851,360.699 330.908,362.270 330.613 C 364.132 330.264,365.866 328.523,366.217 326.649 C 366.371 325.830,366.827 325.000,367.247 324.775 C 367.888 324.432,368.000 323.897,368.000 321.186 L 368.000 318.000 370.800 318.000 C 374.651 318.000,375.200 317.435,375.200 313.470 L 375.200 310.540 377.664 310.170 C 381.316 309.621,381.579 309.120,381.878 302.122 L 382.119 296.485 383.560 296.247 C 384.352 296.116,385.557 296.007,386.238 296.004 C 388.606 295.996,388.915 295.141,389.120 288.038 L 389.303 281.691 391.445 281.513 C 395.590 281.169,396.014 280.013,396.291 268.300 L 396.497 259.600 398.248 259.600 L 400.000 259.600 400.000 200.000 L 400.000 140.400 398.200 140.400 L 396.400 140.400 396.400 133.700 C 396.399 127.614,395.899 123.087,394.955 120.626 C 394.624 119.765,393.010 118.963,390.900 118.612 L 389.200 118.330 389.171 113.865 C 389.114 105.125,388.643 104.005,385.024 103.994 C 382.121 103.985,382.148 104.040,381.874 97.814 C 381.568 90.878,381.304 90.377,377.664 89.830 L 375.200 89.460 375.200 86.949 C 375.200 82.919,374.795 82.401,371.636 82.394 C 368.184 82.386,368.100 82.305,367.893 78.798 C 367.481 71.822,366.356 69.516,362.997 68.764 L 360.884 68.291 360.615 65.426 C 360.243 61.457,359.512 60.838,355.157 60.810 L 353.715 60.800 353.446 57.902 C 353.112 54.316,352.822 54.022,349.322 53.729 L 346.507 53.493 346.274 50.712 C 345.975 47.141,345.755 46.920,342.178 46.585 L 339.200 46.306 339.190 44.853 C 339.180 43.230,338.612 40.480,338.203 40.068 C 338.056 39.921,336.556 39.710,334.868 39.600 L 331.800 39.400 331.552 37.372 C 331.055 33.293,330.718 33.090,323.277 32.362 L 318.000 31.846 318.000 29.549 C 318.000 25.438,317.773 25.200,313.860 25.200 L 310.500 25.200 310.250 23.950 C 310.113 23.263,310.000 22.283,310.000 21.772 C 310.000 19.186,306.779 18.027,299.543 18.008 C 296.082 17.999,296.000 17.926,296.000 14.844 C 296.000 11.340,294.835 10.884,285.745 10.829 L 280.889 10.800 280.629 9.412 C 280.256 7.427,278.643 5.696,276.671 5.166 C 275.752 4.919,274.872 4.511,274.715 4.259 C 274.516 3.938,271.297 3.764,264.015 3.681 L 253.600 3.562 253.600 1.781 L 253.600 0.000 200.000 0.000 L 146.400 0.000 146.400 1.781 M187.552 63.505 C 187.688 63.716,188.696 64.021,189.791 64.183 C 190.886 64.344,192.896 64.922,194.256 65.467 C 196.400 66.325,196.934 66.398,198.265 66.018 C 200.353 65.420,207.485 64.000,208.396 64.000 C 208.802 64.000,209.204 63.788,209.290 63.530 C 209.504 62.887,229.894 62.797,230.313 63.437 C 230.471 63.678,231.225 63.996,231.989 64.145 C 233.402 64.420,236.000 66.558,236.000 67.445 C 236.000 67.714,236.151 67.993,236.337 68.067 C 236.522 68.140,236.965 69.807,237.322 71.772 C 238.205 76.626,238.253 76.662,243.022 76.038 C 249.336 75.212,255.222 75.990,256.853 77.867 C 259.708 81.151,259.024 86.340,255.200 90.400 C 254.283 91.374,253.258 92.701,252.924 93.348 C 252.589 93.995,251.967 94.898,251.542 95.354 C 251.117 95.811,250.677 96.638,250.566 97.192 C 250.454 97.746,249.975 99.460,249.502 101.000 C 248.668 103.715,248.637 104.567,248.494 128.993 C 248.412 142.849,248.223 154.279,248.073 154.393 C 247.736 154.649,246.768 157.115,246.580 158.200 C 245.314 165.476,244.601 169.037,244.376 169.200 C 244.224 169.310,243.968 170.030,243.807 170.800 C 243.475 172.384,242.122 174.800,241.567 174.800 C 241.365 174.800,241.200 175.074,241.200 175.409 C 241.200 175.743,240.760 176.218,240.222 176.463 C 239.684 176.708,238.976 177.559,238.649 178.354 C 238.322 179.149,237.323 180.565,236.428 181.501 C 235.532 182.436,234.800 183.379,234.800 183.596 C 234.800 183.813,234.074 184.448,233.186 185.009 C 232.299 185.569,231.235 186.365,230.821 186.779 C 230.408 187.192,228.706 187.940,227.038 188.441 C 225.161 189.004,223.927 189.600,223.798 190.005 C 223.139 192.084,218.980 194.000,215.127 194.000 C 214.067 194.000,213.200 194.180,213.200 194.400 C 213.200 194.620,212.743 194.800,212.184 194.800 C 211.625 194.800,210.635 195.194,209.984 195.675 L 208.800 196.550 208.800 204.247 C 208.800 210.554,208.908 212.051,209.400 212.543 C 209.730 212.873,210.000 213.327,210.000 213.553 C 210.000 213.778,210.206 214.413,210.457 214.965 L 210.913 215.967 212.057 214.529 C 213.121 213.190,216.573 211.200,217.832 211.200 C 218.136 211.200,218.493 210.770,218.625 210.244 C 219.116 208.286,223.019 206.000,225.871 206.000 C 226.382 206.000,226.800 205.846,226.800 205.659 C 226.800 205.471,228.465 204.997,230.500 204.605 C 232.536 204.213,234.629 203.557,235.154 203.146 C 235.679 202.736,236.354 202.400,236.654 202.400 C 236.954 202.400,237.200 202.242,237.200 202.049 C 237.200 200.725,245.620 199.743,249.691 200.593 C 251.291 200.926,252.723 201.199,252.872 201.200 C 253.896 201.201,257.587 205.605,258.219 207.578 C 260.257 213.945,258.096 231.889,254.974 234.515 C 254.218 235.151,253.458 236.401,252.991 237.773 C 252.575 238.998,252.092 240.000,251.917 240.000 C 251.743 240.000,251.600 240.337,251.600 240.749 C 251.600 242.731,249.749 245.646,247.893 246.584 C 247.442 246.813,246.606 247.868,246.035 248.928 C 245.465 249.989,244.682 251.034,244.296 251.250 C 243.909 251.467,243.178 252.039,242.671 252.522 C 242.164 253.005,241.174 253.708,240.471 254.083 C 239.768 254.459,239.031 255.193,238.833 255.714 C 238.325 257.049,236.790 257.937,233.684 258.692 C 232.208 259.051,230.910 259.473,230.800 259.631 C 230.690 259.788,229.790 260.132,228.800 260.394 C 227.810 260.657,226.640 261.186,226.200 261.571 C 225.760 261.956,224.770 262.514,224.000 262.813 C 223.230 263.111,222.510 263.471,222.400 263.612 C 222.014 264.110,218.564 264.745,214.800 265.011 C 211.231 265.263,210.933 265.353,209.900 266.494 L 208.800 267.708 208.793 300.154 C 208.784 339.545,208.704 340.623,205.641 342.685 C 203.402 344.192,196.735 344.045,194.519 342.440 C 191.656 340.366,191.849 345.548,191.706 267.119 L 191.577 196.438 190.427 195.619 C 189.794 195.169,188.809 194.800,188.238 194.800 C 187.667 194.800,187.200 194.646,187.200 194.458 C 187.200 194.270,185.918 194.009,184.352 193.877 C 180.896 193.587,178.115 192.312,177.000 190.503 C 176.560 189.789,175.750 189.097,175.200 188.963 C 172.536 188.317,169.744 187.045,168.655 185.980 C 167.991 185.331,167.225 184.800,166.952 184.800 C 166.680 184.800,165.880 183.945,165.174 182.900 C 164.469 181.855,163.549 180.759,163.129 180.465 C 162.709 180.171,162.094 179.252,161.762 178.422 C 161.430 177.592,160.718 176.677,160.179 176.389 C 159.641 176.101,159.200 175.625,159.200 175.332 C 159.200 175.040,159.035 174.800,158.833 174.800 C 158.119 174.800,156.860 172.167,156.347 169.600 C 156.061 168.170,155.695 166.905,155.535 166.790 C 155.374 166.674,154.944 164.694,154.578 162.390 C 154.213 160.085,153.618 157.570,153.257 156.800 C 152.675 155.559,152.587 152.663,152.488 131.300 C 152.417 116.072,152.233 107.200,151.988 107.200 C 151.775 107.200,151.600 106.406,151.600 105.436 C 151.600 104.465,151.242 102.530,150.805 101.136 C 150.368 99.741,150.008 98.261,150.005 97.847 C 150.000 97.085,148.659 94.641,147.715 93.671 C 147.432 93.381,147.200 93.002,147.200 92.831 C 147.200 92.659,146.705 91.971,146.100 91.302 C 143.248 88.150,142.806 87.514,142.347 85.914 C 140.064 77.949,145.623 74.348,157.588 76.042 C 161.983 76.664,162.207 76.525,162.888 72.775 C 163.145 71.359,163.472 70.110,163.615 70.000 C 163.758 69.890,163.996 69.175,164.145 68.411 C 164.520 66.487,166.600 64.441,168.487 64.140 C 169.319 64.007,170.000 63.752,170.000 63.574 C 170.000 62.783,187.042 62.716,187.552 63.505 M172.200 95.400 C 171.980 95.475,170.945 95.652,169.900 95.793 C 167.691 96.091,167.366 97.299,168.700 100.251 C 169.335 101.656,169.422 104.210,169.638 127.800 C 169.872 153.334,170.039 156.464,171.208 157.201 C 171.384 157.312,171.718 158.302,171.950 159.401 C 173.773 168.043,174.125 168.718,177.600 170.218 C 179.617 171.088,180.442 171.920,181.427 174.079 C 183.018 177.562,206.400 178.620,206.400 175.209 C 206.400 174.616,208.824 172.000,209.373 172.000 C 210.120 172.000,213.884 168.115,214.145 167.076 C 214.441 165.896,216.459 163.234,217.071 163.215 C 220.784 163.100,220.924 137.684,217.231 134.400 C 216.028 133.331,214.000 129.515,214.000 128.321 C 214.000 127.925,213.856 127.600,213.679 127.600 C 213.502 127.600,213.158 126.745,212.915 125.700 C 212.314 123.125,211.168 120.000,210.825 120.000 C 210.337 120.000,207.764 117.454,206.783 116.000 C 206.264 115.230,205.722 114.510,205.579 114.400 C 205.437 114.290,205.057 113.401,204.735 112.425 C 204.286 111.063,203.878 110.559,202.982 110.261 C 202.340 110.047,201.599 109.675,201.335 109.436 C 201.071 109.196,200.142 108.571,199.270 108.046 C 198.398 107.522,197.350 106.460,196.942 105.688 C 196.154 104.197,196.007 104.090,193.200 102.952 C 192.210 102.550,191.310 102.102,191.200 101.956 C 191.090 101.810,189.769 101.311,188.265 100.847 C 185.327 99.942,183.200 98.670,183.200 97.818 C 183.200 96.389,174.741 94.530,172.200 95.400 M221.100 95.869 L 218.400 96.511 218.400 100.256 C 218.400 102.398,218.565 104.000,218.786 104.000 C 220.207 104.000,223.600 108.531,223.600 110.428 C 223.600 111.779,225.254 113.086,226.600 112.798 C 229.957 112.079,230.170 111.783,230.503 107.396 C 230.669 105.198,231.164 102.271,231.603 100.892 C 232.793 97.147,232.695 96.160,231.100 95.835 C 228.108 95.225,223.744 95.239,221.100 95.869 M238.600 220.492 C 238.160 220.734,237.710 221.056,237.600 221.208 C 237.490 221.360,236.410 221.701,235.200 221.966 C 225.881 224.010,224.894 224.497,223.387 227.791 C 222.562 229.595,221.937 230.321,220.371 231.294 C 218.845 232.243,218.291 232.873,217.934 234.061 C 217.681 234.908,217.351 235.600,217.200 235.600 C 216.428 235.600,215.983 239.945,216.460 242.836 C 217.135 246.934,218.142 247.778,220.000 245.800 C 220.517 245.250,221.178 244.800,221.470 244.800 C 221.761 244.800,222.000 244.642,222.000 244.449 C 222.000 244.255,222.585 243.882,223.300 243.619 C 224.015 243.356,225.525 242.716,226.655 242.197 C 227.784 241.678,229.359 241.131,230.155 240.982 C 230.950 240.833,231.600 240.563,231.600 240.382 C 231.600 240.202,231.956 239.941,232.392 239.803 C 232.915 239.637,233.389 238.860,233.788 237.514 C 234.647 234.621,236.036 232.383,238.444 230.012 C 239.018 229.447,239.627 228.546,239.797 228.011 C 239.967 227.475,240.367 226.776,240.686 226.457 C 241.285 225.858,241.080 223.220,240.400 222.800 C 240.221 222.689,239.923 222.026,239.737 221.325 C 239.439 220.201,239.306 220.103,238.600 220.492 " stroke="none" fill="#ec475d" fill-rule="evenodd"></path><path id="path4" d="M171.300 63.061 C 170.585 63.165,170.000 63.396,170.000 63.574 C 170.000 63.752,169.319 64.007,168.487 64.140 C 166.600 64.441,164.520 66.487,164.145 68.411 C 163.996 69.175,163.758 69.890,163.615 70.000 C 163.472 70.110,163.145 71.359,162.888 72.775 C 162.207 76.525,161.983 76.664,157.588 76.042 C 145.623 74.348,140.064 77.949,142.347 85.914 C 142.806 87.514,143.248 88.150,146.100 91.302 C 146.705 91.971,147.200 92.659,147.200 92.831 C 147.200 93.002,147.432 93.381,147.715 93.671 C 148.659 94.641,150.000 97.085,150.005 97.847 C 150.008 98.261,150.368 99.741,150.805 101.136 C 151.242 102.530,151.600 104.465,151.600 105.436 C 151.600 106.406,151.775 107.200,151.988 107.200 C 152.233 107.200,152.417 116.072,152.488 131.300 C 152.587 152.663,152.675 155.559,153.257 156.800 C 153.618 157.570,154.213 160.085,154.578 162.390 C 154.944 164.694,155.374 166.674,155.535 166.790 C 155.695 166.905,156.061 168.170,156.347 169.600 C 156.860 172.167,158.119 174.800,158.833 174.800 C 159.035 174.800,159.200 175.040,159.200 175.332 C 159.200 175.625,159.641 176.101,160.179 176.389 C 160.718 176.677,161.430 177.592,161.762 178.422 C 162.094 179.252,162.709 180.171,163.129 180.465 C 163.549 180.759,164.469 181.855,165.174 182.900 C 165.880 183.945,166.680 184.800,166.952 184.800 C 167.225 184.800,167.991 185.331,168.655 185.980 C 169.744 187.045,172.536 188.317,175.200 188.963 C 175.750 189.097,176.560 189.789,177.000 190.503 C 178.115 192.312,180.896 193.587,184.352 193.877 C 185.918 194.009,187.200 194.270,187.200 194.458 C 187.200 194.646,187.667 194.800,188.238 194.800 C 188.809 194.800,189.794 195.169,190.427 195.619 L 191.577 196.438 191.706 267.119 C 191.849 345.548,191.656 340.366,194.519 342.440 C 196.735 344.045,203.402 344.192,205.641 342.685 C 208.704 340.623,208.784 339.545,208.793 300.154 L 208.800 267.708 209.900 266.494 C 210.933 265.353,211.231 265.263,214.800 265.011 C 218.564 264.745,222.014 264.110,222.400 263.612 C 222.510 263.471,223.230 263.111,224.000 262.813 C 224.770 262.514,225.760 261.956,226.200 261.571 C 226.640 261.186,227.810 260.657,228.800 260.394 C 229.790 260.132,230.690 259.788,230.800 259.631 C 230.910 259.473,232.208 259.051,233.684 258.692 C 236.790 257.937,238.325 257.049,238.833 255.714 C 239.031 255.193,239.768 254.459,240.471 254.083 C 241.174 253.708,242.164 253.005,242.671 252.522 C 243.178 252.039,243.909 251.467,244.296 251.250 C 244.682 251.034,245.465 249.989,246.035 248.928 C 246.606 247.868,247.442 246.813,247.893 246.584 C 249.749 245.646,251.600 242.731,251.600 240.749 C 251.600 240.337,251.743 240.000,251.917 240.000 C 252.092 240.000,252.575 238.998,252.991 237.773 C 253.458 236.401,254.218 235.151,254.974 234.515 C 258.096 231.889,260.257 213.945,258.219 207.578 C 257.587 205.605,253.896 201.201,252.872 201.200 C 252.723 201.199,251.291 200.926,249.691 200.593 C 245.620 199.743,237.200 200.725,237.200 202.049 C 237.200 202.242,236.954 202.400,236.654 202.400 C 236.354 202.400,235.679 202.736,235.154 203.146 C 234.629 203.557,232.536 204.213,230.500 204.605 C 228.465 204.997,226.800 205.471,226.800 205.659 C 226.800 205.846,226.382 206.000,225.871 206.000 C 223.019 206.000,219.116 208.286,218.625 210.244 C 218.493 210.770,218.136 211.200,217.832 211.200 C 216.573 211.200,213.121 213.190,212.057 214.529 L 210.913 215.967 210.457 214.965 C 210.206 214.413,210.000 213.778,210.000 213.553 C 210.000 213.327,209.730 212.873,209.400 212.543 C 208.908 212.051,208.800 210.554,208.800 204.247 L 208.800 196.550 209.984 195.675 C 210.635 195.194,211.625 194.800,212.184 194.800 C 212.743 194.800,213.200 194.620,213.200 194.400 C 213.200 194.180,214.067 194.000,215.127 194.000 C 218.980 194.000,223.139 192.084,223.798 190.005 C 223.927 189.600,225.161 189.004,227.038 188.441 C 228.706 187.940,230.408 187.192,230.821 186.779 C 231.235 186.365,232.299 185.569,233.186 185.009 C 234.074 184.448,234.800 183.813,234.800 183.596 C 234.800 183.379,235.532 182.436,236.428 181.501 C 237.323 180.565,238.322 179.149,238.649 178.354 C 238.976 177.559,239.684 176.708,240.222 176.463 C 240.760 176.218,241.200 175.743,241.200 175.409 C 241.200 175.074,241.365 174.800,241.567 174.800 C 242.122 174.800,243.475 172.384,243.807 170.800 C 243.968 170.030,244.224 169.310,244.376 169.200 C 244.601 169.037,245.314 165.476,246.580 158.200 C 246.768 157.115,247.736 154.649,248.073 154.393 C 248.223 154.279,248.412 142.849,248.494 128.993 C 248.637 104.567,248.668 103.715,249.502 101.000 C 249.975 99.460,250.454 97.746,250.566 97.192 C 250.677 96.638,251.117 95.811,251.542 95.354 C 251.967 94.898,252.589 93.995,252.924 93.348 C 253.258 92.701,254.283 91.374,255.200 90.400 C 259.024 86.340,259.708 81.151,256.853 77.867 C 255.222 75.990,249.336 75.212,243.022 76.038 C 238.253 76.662,238.205 76.626,237.322 71.772 C 236.965 69.807,236.522 68.140,236.337 68.067 C 236.151 67.993,236.000 67.714,236.000 67.445 C 236.000 66.558,233.402 64.420,231.989 64.145 C 231.225 63.996,230.471 63.678,230.313 63.437 C 229.894 62.797,209.504 62.887,209.290 63.530 C 209.204 63.788,208.802 64.000,208.396 64.000 C 207.485 64.000,200.353 65.420,198.265 66.018 C 196.934 66.398,196.400 66.325,194.256 65.467 C 192.896 64.922,190.886 64.344,189.791 64.183 C 188.696 64.021,187.688 63.716,187.552 63.505 C 187.293 63.104,173.576 62.729,171.300 63.061 M180.400 63.540 C 180.400 63.727,181.975 64.001,183.900 64.149 C 188.901 64.532,194.618 66.138,195.135 67.305 C 195.626 68.415,198.851 68.291,199.625 67.132 C 199.857 66.785,202.794 65.920,207.000 64.960 C 208.320 64.659,211.335 64.292,213.700 64.145 C 216.065 63.998,218.000 63.725,218.000 63.539 C 218.000 63.352,219.980 63.200,222.400 63.200 C 224.820 63.200,226.800 63.339,226.800 63.508 C 226.800 63.678,227.859 64.018,229.153 64.264 C 233.494 65.089,235.296 66.700,235.825 70.229 C 235.971 71.203,236.230 72.000,236.400 72.000 C 236.570 72.000,236.829 72.802,236.976 73.783 C 237.412 76.684,238.414 77.152,242.935 76.568 C 247.002 76.042,252.629 76.435,254.958 77.408 C 258.717 78.979,258.973 85.848,255.373 88.593 C 254.613 89.173,253.742 90.222,253.438 90.924 C 253.134 91.626,252.596 92.560,252.243 93.000 C 251.015 94.528,249.600 96.838,249.598 97.318 C 249.593 98.288,248.756 100.787,248.268 101.287 C 246.933 102.652,246.848 104.170,246.676 129.600 C 246.501 155.416,245.849 165.798,244.369 166.333 C 244.166 166.407,243.998 166.857,243.996 167.333 C 243.984 169.769,241.732 174.400,240.559 174.400 C 240.290 174.400,239.415 175.570,238.615 177.000 C 236.020 181.640,230.343 186.732,226.325 188.024 C 224.302 188.675,223.296 189.246,222.667 190.101 C 221.354 191.886,219.027 192.866,214.786 193.419 C 211.391 193.862,210.808 194.062,209.486 195.232 L 208.000 196.547 208.004 203.574 C 208.008 210.294,208.520 214.071,209.522 214.779 C 209.693 214.901,210.137 215.630,210.508 216.400 C 210.878 217.170,211.186 217.516,211.191 217.169 C 211.204 216.282,215.512 212.398,216.763 212.146 C 218.072 211.883,218.800 211.327,219.917 209.734 C 221.014 208.172,223.390 207.008,226.800 206.363 C 228.230 206.093,229.490 205.756,229.600 205.614 C 229.710 205.472,231.330 205.035,233.200 204.642 C 235.070 204.249,237.161 203.584,237.847 203.164 C 238.533 202.744,239.478 202.400,239.947 202.400 C 240.416 202.400,240.800 202.237,240.800 202.038 C 240.800 201.452,246.403 200.948,248.500 201.346 C 249.545 201.544,250.400 201.841,250.400 202.006 C 250.400 202.170,251.165 202.498,252.100 202.733 C 256.951 203.956,258.650 207.896,258.254 217.000 C 257.840 226.506,256.969 230.491,254.777 232.888 C 254.118 233.610,253.281 235.145,252.916 236.300 C 252.552 237.455,252.128 238.400,251.974 238.400 C 251.821 238.400,251.488 239.223,251.235 240.228 C 250.644 242.575,248.976 245.088,247.506 245.849 C 246.794 246.217,246.060 247.127,245.590 248.223 C 245.171 249.200,244.682 250.000,244.503 250.000 C 244.323 250.000,243.534 250.624,242.749 251.387 C 241.963 252.150,240.839 252.957,240.251 253.181 C 239.662 253.405,238.815 254.208,238.367 254.965 C 237.369 256.658,235.329 257.759,231.514 258.664 C 229.911 259.045,228.510 259.465,228.400 259.598 C 228.117 259.941,222.096 262.380,220.300 262.880 C 219.475 263.110,218.800 263.436,218.800 263.606 C 218.800 263.775,217.028 264.041,214.862 264.196 C 211.291 264.451,210.835 264.576,209.959 265.539 C 207.937 267.761,208.011 266.407,207.902 303.400 C 207.788 342.207,207.890 340.798,205.099 342.190 C 203.297 343.090,196.869 343.031,195.238 342.100 C 192.402 340.482,192.612 346.194,192.492 267.357 L 192.385 196.515 190.966 195.223 C 189.699 194.071,189.130 193.878,185.673 193.428 C 181.279 192.857,179.885 192.261,177.642 189.995 C 176.773 189.118,175.767 188.400,175.406 188.400 C 172.159 188.400,164.612 182.055,161.731 176.904 C 160.961 175.527,160.110 174.400,159.841 174.400 C 158.565 174.400,156.853 170.653,156.185 166.400 C 156.029 165.410,155.770 164.510,155.608 164.400 C 154.383 163.568,153.905 154.707,153.728 129.600 C 153.541 103.106,153.483 102.226,151.810 100.553 C 151.501 100.244,151.126 99.180,150.978 98.190 C 150.829 97.200,150.546 96.290,150.348 96.168 C 150.150 96.046,149.624 95.230,149.178 94.356 C 148.732 93.482,148.014 92.414,147.583 91.983 C 147.153 91.553,146.800 90.944,146.800 90.631 C 146.800 90.318,146.083 89.448,145.206 88.698 C 141.372 85.416,141.541 79.202,145.511 77.457 C 147.870 76.420,153.246 76.020,157.465 76.567 C 161.470 77.086,163.200 76.543,163.200 74.767 C 163.200 74.345,163.351 74.000,163.536 74.000 C 163.721 74.000,164.092 72.769,164.361 71.265 C 165.198 66.580,166.958 64.883,171.700 64.188 C 172.745 64.034,173.600 63.750,173.600 63.555 C 173.600 63.360,175.130 63.200,177.000 63.200 C 178.870 63.200,180.400 63.353,180.400 63.540 M175.232 94.241 C 175.213 94.504,173.838 94.777,171.821 94.920 C 168.529 95.152,165.939 96.367,167.073 97.147 C 168.070 97.833,168.408 106.086,168.404 129.633 C 168.402 142.962,168.523 153.990,168.674 154.141 C 169.047 154.514,169.921 157.024,170.415 159.139 C 170.638 160.095,171.054 161.111,171.340 161.397 C 171.625 161.682,172.173 163.150,172.558 164.658 C 173.591 168.705,173.811 169.087,175.640 170.021 C 178.258 171.356,180.220 173.114,181.232 175.031 C 182.309 177.070,191.843 178.371,199.750 177.557 C 204.747 177.042,205.735 176.657,208.183 174.273 C 209.128 173.353,210.992 171.610,212.326 170.400 C 213.660 169.190,214.763 167.947,214.776 167.638 C 214.811 166.829,216.674 164.495,217.500 164.226 C 221.583 162.896,221.302 136.955,217.154 132.414 C 215.669 130.788,214.964 129.415,214.356 126.960 C 214.089 125.882,213.754 124.910,213.611 124.800 C 213.469 124.690,212.823 123.255,212.176 121.611 C 211.414 119.674,210.687 118.466,210.111 118.179 C 208.997 117.625,206.832 114.958,206.313 113.500 C 206.098 112.895,205.759 112.400,205.561 112.400 C 205.362 112.400,205.194 112.175,205.187 111.900 C 205.165 111.014,203.362 109.310,201.557 108.469 C 199.457 107.491,197.793 106.038,197.417 104.854 C 197.143 103.989,195.327 102.800,194.281 102.800 C 193.974 102.800,193.307 102.439,192.798 101.998 C 192.290 101.558,191.193 101.013,190.360 100.789 C 187.701 100.073,185.575 98.939,184.472 97.648 C 183.454 96.456,178.742 94.800,176.369 94.800 C 175.983 94.800,175.576 94.575,175.465 94.300 C 175.346 94.006,175.250 93.982,175.232 94.241 M225.206 94.219 C 225.203 94.449,223.964 94.849,222.454 95.108 C 217.436 95.969,217.600 95.799,217.600 100.119 L 217.600 103.858 219.259 105.229 C 221.690 107.239,222.403 108.066,222.672 109.192 C 223.035 110.708,224.363 113.200,224.808 113.200 C 225.394 113.200,225.288 112.888,224.400 112.000 C 223.960 111.560,223.600 110.862,223.600 110.449 C 223.600 108.533,220.216 104.000,218.786 104.000 C 218.565 104.000,218.400 102.399,218.400 100.258 L 218.400 96.516 221.668 95.810 C 224.809 95.131,227.633 95.147,231.212 95.862 C 232.684 96.157,232.767 97.229,231.603 100.892 C 231.164 102.271,230.669 105.198,230.503 107.396 C 230.170 111.783,229.939 112.102,226.602 112.786 C 223.728 113.376,224.945 114.400,228.519 114.400 L 231.896 114.400 232.078 107.767 C 232.185 103.829,232.428 101.026,232.674 100.867 C 232.902 100.720,233.176 99.671,233.282 98.536 C 233.541 95.771,232.926 95.266,228.888 94.933 C 227.190 94.793,225.668 94.481,225.506 94.239 C 225.314 93.952,225.210 93.945,225.206 94.219 M178.227 95.634 C 181.062 96.153,183.200 97.092,183.200 97.818 C 183.200 98.670,185.327 99.942,188.265 100.847 C 189.769 101.311,191.090 101.810,191.200 101.956 C 191.310 102.102,192.210 102.550,193.200 102.952 C 196.007 104.090,196.154 104.197,196.942 105.688 C 197.350 106.460,198.398 107.522,199.270 108.046 C 200.142 108.571,201.071 109.196,201.335 109.436 C 201.599 109.675,202.340 110.047,202.982 110.261 C 203.878 110.559,204.286 111.063,204.735 112.425 C 205.057 113.401,205.437 114.290,205.579 114.400 C 205.722 114.510,206.264 115.230,206.783 116.000 C 207.764 117.454,210.337 120.000,210.825 120.000 C 211.168 120.000,212.314 123.125,212.915 125.700 C 213.158 126.745,213.502 127.600,213.679 127.600 C 213.856 127.600,214.000 127.925,214.000 128.321 C 214.000 129.515,216.028 133.331,217.231 134.400 C 220.924 137.684,220.784 163.100,217.071 163.215 C 216.459 163.234,214.441 165.896,214.145 167.076 C 213.884 168.115,210.120 172.000,209.373 172.000 C 208.824 172.000,206.400 174.616,206.400 175.209 C 206.400 178.620,183.018 177.562,181.427 174.079 C 180.442 171.920,179.617 171.088,177.600 170.218 C 174.125 168.718,173.773 168.043,171.950 159.401 C 171.718 158.302,171.384 157.312,171.208 157.201 C 170.039 156.464,169.872 153.334,169.638 127.800 C 169.422 104.210,169.335 101.656,168.700 100.251 C 167.366 97.299,167.691 96.091,169.900 95.793 C 170.945 95.652,171.980 95.475,172.200 95.400 C 173.056 95.107,175.962 95.220,178.227 95.634 M238.461 219.221 C 237.945 219.645,236.820 220.202,235.961 220.459 C 235.103 220.716,234.400 221.078,234.400 221.263 C 234.400 221.448,234.175 221.596,233.900 221.592 C 233.625 221.587,231.354 222.169,228.854 222.885 L 224.307 224.187 223.374 226.298 C 222.416 228.462,220.646 230.410,218.700 231.439 C 218.068 231.773,217.600 232.356,217.600 232.810 C 217.600 233.245,217.444 233.600,217.254 233.600 C 215.990 233.600,215.214 243.486,216.263 246.220 C 216.948 248.005,220.891 247.238,223.493 244.813 C 223.974 244.366,224.531 244.000,224.733 244.000 C 224.934 244.000,225.887 243.564,226.850 243.032 C 227.812 242.499,229.618 241.771,230.863 241.414 C 233.268 240.724,233.646 240.269,234.792 236.674 C 235.060 235.834,235.847 234.548,236.540 233.815 C 238.323 231.931,240.000 229.566,240.000 228.936 C 240.000 228.641,240.151 228.400,240.336 228.400 C 241.624 228.400,241.716 221.370,240.441 220.400 C 240.296 220.290,240.003 219.807,239.789 219.326 C 239.403 218.458,239.393 218.457,238.461 219.221 M240.400 222.800 C 241.080 223.220,241.285 225.858,240.686 226.457 C 240.367 226.776,239.967 227.475,239.797 228.011 C 239.627 228.546,239.018 229.447,238.444 230.012 C 236.036 232.383,234.647 234.621,233.788 237.514 C 233.389 238.860,232.915 239.637,232.392 239.803 C 231.956 239.941,231.600 240.202,231.600 240.382 C 231.600 240.563,230.950 240.833,230.155 240.982 C 229.359 241.131,227.784 241.678,226.655 242.197 C 225.525 242.716,224.015 243.356,223.300 243.619 C 222.585 243.882,222.000 244.255,222.000 244.449 C 222.000 244.642,221.761 244.800,221.470 244.800 C 221.178 244.800,220.517 245.250,220.000 245.800 C 218.142 247.778,217.135 246.934,216.460 242.836 C 215.983 239.945,216.428 235.600,217.200 235.600 C 217.351 235.600,217.681 234.908,217.934 234.061 C 218.291 232.873,218.845 232.243,220.371 231.294 C 221.937 230.321,222.562 229.595,223.387 227.791 C 224.894 224.497,225.881 224.010,235.200 221.966 C 236.410 221.701,237.490 221.360,237.600 221.208 C 238.446 220.040,239.411 220.093,239.737 221.325 C 239.923 222.026,240.221 222.689,240.400 222.800 " stroke="none" fill="#ec6474" fill-rule="evenodd"></path></g></svg>